<svg viewBox="0 0 484 92" fill="none" xmlns="http://www.w3.org/2000/svg">
    <path
            fillRule="evenodd"
            clipRule="evenodd"
            d="M204.006 91.7154C209.901 91.7154 215.376 87.39 216.235 82.0535L219.541 61.5695C219.657 60.8513 219.157 60.2636 218.429 60.2636H199.458C198.731 60.2636 198.04 60.8513 197.924 61.5695L196.395 71.0117C196.119 72.7324 194.354 74.1265 192.453 74.1265H178.251C176.35 74.1265 175.035 72.7324 175.311 71.0117L183.334 21.181C183.61 19.4602 185.376 18.0657 187.277 18.0657H201.48C203.379 18.0657 204.695 19.4602 204.418 21.181L202.91 30.6218C202.795 31.34 203.297 31.9281 204.024 31.9281H222.996C223.723 31.9281 224.413 31.34 224.528 30.6218L227.813 10.1391C228.672 4.80312 224.589 0.47583 218.695 0.47583H175.724C169.828 0.47583 164.352 4.80312 163.494 10.1391L151.917 82.0535C151.058 87.39 155.14 91.7154 161.035 91.7154H204.006ZM293.289 20.7343C293.173 21.4524 292.483 22.0406 291.755 22.0406H275.363C274.635 22.0406 273.945 22.6283 273.829 23.3464L263.039 90.4093C262.923 91.1279 262.233 91.7156 261.505 91.7156H242.535C241.808 91.7156 241.307 91.1279 241.422 90.4093L252.212 23.3464C252.328 22.6283 251.828 22.0406 251.1 22.0406H235.393C234.665 22.0406 234.165 21.4524 234.281 20.7343L237.338 1.78181C237.454 1.06364 238.144 0.475971 238.871 0.475971H295.235C295.962 0.475971 296.463 1.06364 296.347 1.78181L293.289 20.7343ZM483.624 1.78542C483.74 1.06679 483.24 0.479116 482.512 0.479116H463.54C462.813 0.479116 462.123 1.06679 462.007 1.78542L455.284 43.5478C455.169 44.2664 454.794 44.3288 454.452 43.6867L432.043 1.64648C431.701 1.00483 430.826 0.479116 430.098 0.479116H418.055C417.327 0.479116 416.637 1.06679 416.522 1.78542L402.254 90.4096C402.138 91.1277 402.639 91.7154 403.367 91.7154H422.34C423.068 91.7154 423.758 91.1277 423.873 90.4096L430.594 48.6467C430.71 47.9281 431.084 47.8657 431.427 48.5078L453.835 90.5481C454.177 91.1902 455.053 91.7154 455.78 91.7154H467.825C468.553 91.7154 469.242 91.1277 469.358 90.4096L483.624 1.78542ZM349.621 70.2383C349.345 71.9402 350.66 73.3194 352.562 73.3194H366.765C368.665 73.3194 370.43 71.9402 370.707 70.2383L378.729 20.9542C379.005 19.2523 377.69 17.8726 375.79 17.8726H361.587C359.686 17.8726 357.922 19.2523 357.644 20.9542L349.621 70.2383ZM350.034 0.475971H393.006C398.901 0.475971 402.982 4.75583 402.123 10.0333L390.546 81.1596C389.687 86.4376 384.212 90.7156 378.318 90.7156H335.345C329.45 90.7156 325.368 86.4376 326.228 81.1596L337.806 10.0333C338.664 4.75583 344.139 0.475971 350.034 0.475971ZM306.056 0.478975C305.328 0.478975 304.638 1.06712 304.522 1.78528L290.255 90.4094C290.139 91.1276 290.64 91.7153 291.368 91.7153H310.338C311.065 91.7153 311.756 91.1276 311.871 90.4094L326.139 1.78528C326.254 1.06712 325.754 0.478975 325.026 0.478975H306.056ZM127.077 21.181L123.534 43.1892C123.418 43.9073 122.728 44.495 122.001 44.495H103.562C102.835 44.495 102.428 43.9308 102.66 43.2413L110.072 21.181C110.649 19.4602 112.659 18.0657 114.559 18.0657H124.139C126.038 18.0657 127.354 19.4602 127.077 21.181ZM92.163 10.1391L65.1812 90.4612C64.9493 91.1512 65.3548 91.7154 66.0829 91.7154H85.0536C85.7812 91.7154 86.566 91.1512 86.7979 90.4612L95.9087 63.3395C96.1406 62.6495 96.9254 62.0853 97.653 62.0853H119.169C119.897 62.0853 120.398 62.673 120.282 63.3912L115.932 90.4096C115.817 91.1277 116.318 91.7154 117.045 91.7154H136.016C136.744 91.7154 137.434 91.1277 137.55 90.4096L150.472 10.1391C151.331 4.80312 147.249 0.47583 141.354 0.47583H106.084C100.188 0.47583 93.9561 4.80312 92.163 10.1391Z"
            fill="#001489"
    />
    <path
            fillRule="evenodd"
            clipRule="evenodd"
            d="M47.236 1.72348C47.4679 1.03394 48.2527 0.469271 48.9803 0.469271H55.0161C55.7442 0.469271 56.1497 1.03394 55.9178 1.72348L26.1103 90.4542C25.8784 91.1437 25.0936 91.7079 24.3661 91.7079H22.6711H21.3474H20.0247H18.3297C17.6017 91.7079 17.1962 91.1437 17.428 90.4542L47.236 1.72348ZM68.9395 1.72348C69.1714 1.03394 69.9562 0.469271 70.6837 0.469271H81.0605C81.7881 0.469271 82.1936 1.03394 81.9622 1.72348L52.1547 90.4542C51.9228 91.1437 51.138 91.7079 50.4104 91.7079H40.0332C39.3056 91.7079 38.9001 91.1437 39.1315 90.4542L68.9395 1.72348ZM34.2143 1.72338C34.4462 1.03385 34.0401 0.469177 33.3131 0.469177H31.4566C30.5564 0.469177 30.1621 0.930585 29.8734 1.72338L0.0653932 90.4541C-0.166484 91.1436 0.239067 91.7083 0.966618 91.7083H2.82774C3.70362 91.7083 4.12137 91.3004 4.40676 90.4541L34.2143 1.72338Z"
            fill="#62B5E5"
    />
</svg>
